PathFileType	4	(X/Y/Z)	C:/Users/beibeiliu/ov580/test_trc/User3\sequence.3_training_dense_left.trc
DataRate	CameraRate	NumFrames	NumMarkers	Units	OrigDataRate	OrigDataStartFrame	OrigNumFrames
120	120	9	19	mm	120	53	78
Frame#	Time	ThumbCMC			ThumbMCP			ThumbIP			ThumbTip			IndexMCP			IndexPIP			IndexTip			MiddleMCP			MiddlePIP			MiddleTip			RingMCP			RingPIP			RingTip			PinkyMCP			PinkyPIP			PinkyTip			BackHand1			BackHand2			BackHand3	
		X0	Y0	Z0	X1	Y1	Z1	X2	Y2	Z2	X3	Y3	Z3	X4	Y4	Z4	X5	Y5	Z5	X6	Y6	Z6	X7	Y7	Z7	X8	Y8	Z8	X9	Y9	Z9	X10	Y10	Z10	X11	Y11	Z11	X12	Y12	Z12	X13	Y13	Z13	X14	Y14	Z14	X15	Y15	Z15	X16	Y16	Z16	X17	Y17	Z17	X18	Y18	Z18	
52	0.433333	-77.0231	-16.4374	-55.5553	-50.3176	-29.4264	-72.0533	-38.1418	-54.8613	-98.1291	-52.9978	-79.2107	-99.538	-72.1151	-41.5984	-120.779	-46.921	-56.5442	-106.632	-63.2333	-41.7543	-80.1001	-76.4823	-63.3543	-117.374	-52.5289	-69.3582	-98.9052	-71.3187	-46.9572	-69.0173	-88.7986	-74.7683	-102.329	-65.4646	-76.7688	-80.5733	-81.9075	-56.2949	-58.4009	-95.295	-85.9914	-90.4811	-77.3192	-78.8579	-68.7709	-93.6236	-58.5569	-50.7533	-127.601	-44.7391	-81.4387	-139.109	-38.357	-47.7706	-113.154	-13.2287	-71.244	
53	0.441667	-82.0138	-1.46297	-52.6584	-49.8673	-7.94336	-74.4485	-28.9552	-27.238	-91.3491	-32.9567	-54.1264	-89.1408	-64.7879	-30.3098	-116.423	-35.9893	-30.4952	-99.2151	-54.754	-21.0309	-75.7609	-58.9764	-47.683	-110.863	-36.627	-44.668	-86.8656	-64.7613	-33.1523	-62.2261	-63.3984	-61.3404	-96.3873	-45.4183	-57.7201	-72.7616	-64.4606	-41.3231	-52.1462	-68.4844	-75.4281	-83.725	-54.0861	-61.0658	-62.8558	-74.4066	-48.3246	-45.5175	-119.108	-56.1274	-73.2765	-128.622	-48.253	-46.1072	-115.958	-17.4905	-70.6695	
54	0.45	-97.1094	15.8727	-51.1571	-67.388	22.6414	-65.2595	-39.6088	12.4146	-82.08	-31.8834	-13.4093	-80.3054	-68.8278	-3.20642	-110.259	-42.9861	7.82752	-89.8923	-64.5749	7.26885	-68.3179	-58.2578	-22.0548	-102.984	-39.6122	-6.47656	-79.0396	-70.4766	-7.36142	-54.8821	-56.4481	-36.3682	-88.008	-41.2267	-23.9164	-62.7382	-66.0456	-16.7304	-45.4548	-53.3389	-45.9316	-76.4828	-46.1323	-30.7383	-55.3354	-71.2204	-28.0393	-40.2142	-109.252	-48.3757	-69.4526	-120.479	-46.1023	-38.0755	-121.318	-12.1047	-62.9166	
55	0.458333	-113.97	30.6178	-40.899	-86.936	49.8985	-58.1575	-60.2563	44.9371	-71.0284	-39.9098	24.7005	-73.1231	-82.9203	22.7877	-102.438	-59.9929	41.1975	-85.6971	-80.0596	34.2061	-60.8791	-67.5693	12.546	-96.5435	-51.7007	30.8906	-72.0578	-76.5137	16.6581	-47.936	-62.7123	-2.05887	-84.0024	-48.09	13.1009	-55.715	-73.1891	8.51068	-38.6167	-53.0293	-14.4619	-71.3071	-48.1185	3.05175	-51.2326	-74.0272	-7.54519	-31.1287	-106.818	-28.1158	-62.3562	-119.287	-30.9839	-35.1695	-130.873	-3.47923	-53.7252	
56	0.466667	-131.441	39.7444	-36.5239	-112.505	64.6811	-54.2253	-83.4141	66.8213	-69.2412	-60.5638	50.9869	-67.6979	-97.281	41.8771	-98.3244	-81.7722	65.9019	-83.6745	-96.7461	58.5516	-56.7603	-78.4902	35.1201	-91.4594	-68.1803	53.4107	-65.8932	-90.984	31.4149	-43.39	-70.4418	20.742	-78.0248	-60.7962	39.0143	-51.7148	-86.8495	27.4344	-35.9473	-62.0567	9.78933	-66.3754	-56.6419	29.8085	-47.0449	-77.4503	13.4615	-26.5922	-102.463	-18.358	-58.8356	-116.552	-25.3853	-25.8161	-134.385	4.69109	-50.1123	
57	0.475	-148.954	28.2392	-30.4892	-145.432	47.2238	-58.4052	-116.563	50.2919	-76.4797	-93.6644	45.612	-73.0754	-115.941	43.9299	-96.3804	-103.71	68.7582	-82.8625	-113.561	60.7803	-52.6992	-94.9554	37.4298	-91.949	-88.3258	61.9973	-73.6624	-105.74	37.6131	-43.234	-82.729	32.8914	-78.4683	-80.3222	52.9521	-55.4639	-98.0439	35.6277	-36.5312	-70.5754	22.1649	-65.3304	-72.0251	42.7238	-43.648	-87.4719	24.3015	-25.1131	-104.047	-14.9109	-50.7616	-117.889	-21.5066	-22.846	-139.896	-4.60076	-43.3023	
58	0.483333	-169.067	9.71841	-32.9797	-165.821	30.9146	-59.5056	-150.973	44.9091	-81.5768	-121.237	43.8595	-83.6918	-140.594	14.8309	-99.7693	-133.457	44.7966	-90.0168	-137.269	30.5216	-56.7091	-117.489	13.5899	-96.4538	-117.526	44.3816	-79.9753	-127.685	24.1531	-48.0281	-102.648	13.0741	-83.902	-103.93	39.6339	-65.5788	-117.528	24.8401	-42.6808	-87.9355	12.6457	-71.0474	-96.1144	34.6694	-56.4035	-107.415	15.2374	-32.29	-115.96	-28.436	-51.221	-120.681	-32.3927	-16.3344	-148.127	-25.8933	-41.09	
59	0.491667	-186.639	-9.36236	-30.1624	-184.795	9.81349	-60.0326	-172.942	21.2786	-85.4893	-145.036	19.2742	-90.506	-168.26	-14.4029	-103.03	-165.28	15.5696	-94.2035	-162.774	7.5561	-65.8153	-143.163	-15.3335	-101.842	-144.409	15.0828	-93.9026	-146.557	3.96575	-55.6087	-127.418	-13.1626	-90.8677	-130.676	14.0356	-76.4829	-139.345	0.0642605	-46.4195	-111.9	-15.5278	-76.6196	-119.3	10.8023	-63.4982	-127.013	-2.61556	-41.9649	-130.878	-51.9392	-43.609	-134.209	-51.0816	-13.7744	-170.152	-47.227	-35.1947	
60	0.5	-202.834	-16.4656	-25.5244	-199.5	-1.77669	-57.2296	-187.636	4.2408	-89.9229	-164.396	-4.91964	-95.1734	-196.56	-38.5578	-94.7662	-184.97	-7.49058	-100.462	-182.984	-10.023	-64.1834	-177.37	-39.252	-99.5352	-166.348	-9.94556	-97.5795	-170.944	-12.0414	-54.4625	-156.021	-41.2061	-91.2616	-147.845	-12.4323	-82.3164	-157.994	-15.3085	-52.4853	-141.027	-43.369	-79.98	-137.271	-16.4421	-72.7619	-144.663	-19.8832	-43.6788	-164.332	-71.1042	-43.6391	-161.75	-65.0595	-8.33782	-190.839	-57.3696	-27.1635	
